<?xml version="1.0" encoding="UTF-8" standalone="no"?>
<svg
   height="16"
   viewBox="0 0 16 16"
   width="16"
   version="1.1"
   id="svg1"
   sodipodi:docname="ProjectIcon.svg"
   inkscape:version="1.3 (0e150ed6c4, 2023-07-21)"
   xml:space="preserve"
   inkscape:export-filename="ProjectIcon.png"
   inkscape:export-xdpi="1371.4286"
   inkscape:export-ydpi="1371.4286"
   xmlns:inkscape="http://www.inkscape.org/namespaces/inkscape"
   xmlns:sodipodi="http://sodipodi.sourceforge.net/DTD/sodipodi-0.dtd"
   xmlns="http://www.w3.org/2000/svg"
   xmlns:svg="http://www.w3.org/2000/svg"><defs
     id="defs1" /><sodipodi:namedview
     id="namedview1"
     pagecolor="#505050"
     bordercolor="#eeeeee"
     borderopacity="1"
     inkscape:showpageshadow="0"
     inkscape:pageopacity="0"
     inkscape:pagecheckerboard="0"
     inkscape:deskcolor="#505050"
     inkscape:zoom="18.141709"
     inkscape:cx="5.7050856"
     inkscape:cy="13.201623"
     inkscape:window-width="1920"
     inkscape:window-height="1017"
     inkscape:window-x="1912"
     inkscape:window-y="-8"
     inkscape:window-maximized="1"
     inkscape:current-layer="g20"
     showguides="false" /><g
     id="g20"
     transform="matrix(0.94046688,0,0,0.94046688,0.47626456,0.47626475)"><g
       id="g54"><g
         id="g3"
         transform="matrix(0.80326187,0,0,0.80326187,1.5739054,1.573905)"><path
           d="m 1.4364942,4.5541594 c 0,-0.9968522 0.808112,-1.8049642 1.8049641,-1.8049642 h 9.5170837 c 0.996865,0 1.804963,0.808112 1.804963,1.8049642 v 6.8916816 c 0,0.996865 -0.808098,1.804964 -1.804963,1.804964 H 3.2414583 c -0.9968521,0 -1.8049641,-0.808099 -1.8049641,-1.804964 z M 4.5541596,4.718247 c -0.6343629,0 -1.1486135,0.5142507 -1.1486135,1.1486135 v 4.2662785 c 0,0.634363 0.5142506,1.148614 1.1486135,1.148614 H 11.44584 c 0.634364,0 1.148614,-0.514251 1.148614,-1.148614 V 5.8668605 c 0,-0.6343628 -0.51425,-1.1486135 -1.148614,-1.1486135 z"
           fill="#212121"
           id="path4"
           style="fill:#8eef97;fill-opacity:1;stroke-width:0.65635" /></g><path
         d="m 3.2408194,0.6457972 c 0.1924766,0.0925107 0.3148858,0.28716112 0.3148858,0.5007153 0,0.6146793 0.2311893,0.9685846 0.5208241,1.3995736 l 0.021056,0.031313 c 0.2463233,0.3659454 0.5692012,0.8456458 0.5692012,1.5320024 0,0.7003617 -0.3534593,1.3181767 -0.8917166,1.6847838 0.1416123,0.1187233 0.2670801,0.2651431 0.374878,0.4396222 0.3524069,0.5703367 0.5168386,1.4417981 0.5168386,2.6939135 0,1.26819 -0.1703403,2.791113 -0.4478301,4.006934 -0.1379751,0.604576 -0.3088657,1.162267 -0.51309,1.581445 -0.1012898,0.207848 -0.2246187,0.410874 -0.3781806,0.569689 -0.1518688,0.156955 -0.3865212,0.323247 -0.6978812,0.323247 -0.3113671,0 -0.5460195,-0.166292 -0.697888,-0.323247 C 1.7783551,14.926974 1.6550262,14.723948 1.5537432,14.5161 1.349519,14.096922 1.1786215,13.539231 1.0406464,12.934655 0.76316345,11.718834 0.59281625,10.195911 0.59281625,8.9277209 c 0,-1.2521154 0.16443142,-2.1235768 0.51683855,-2.6939135 C 1.2174525,6.0593283 1.3429205,5.9129085 1.4845328,5.7941852 0.9462755,5.4275781 0.59281625,4.8097631 0.59281625,4.1094014 c 0,-0.2727309 2.7799e-4,-0.7415479 0.2839977,-1.3468767 C 1.1544991,2.1701282 1.6821656,1.4894712 2.6531191,0.71270835 2.8198778,0.5792971 3.0483428,0.55329363 3.2408194,0.6457972 Z"
         fill="#212121"
         id="path1"
         style="fill:#8da5f3;fill-opacity:1;stroke-width:0.740727"
         sodipodi:nodetypes="csccsccscccscccsccsccc" /><path
         d="m 6.5185519,6.8871019 c 0,-0.6136342 0.4974335,-1.1110815 1.1110539,-1.1110815 h 6.6664972 c 0.61369,0 1.111082,0.4974473 1.111082,1.1110815 v 6.6665041 c 0,0.613613 -0.497392,1.111081 -1.111082,1.111081 H 7.6296062 c -0.6136204,0 -1.1110539,-0.497468 -1.1110539,-1.111081 z m 1.48141,3.2717681 v 3.024373 H 13.92574 V 7.2574647 H 11.45069 C 10.920188,8.7585375 9.6061499,9.88947 7.9999619,10.15887 Z M 9.8257728,7.2574647 H 7.9999619 V 8.6455765 C 8.7783901,8.4452123 9.4329669,7.9365609 9.8257728,7.2574647 Z"
         fill="#212121"
         id="path2"
         style="fill:#fc7f7f;fill-opacity:1;stroke-width:0.740727"
         sodipodi:nodetypes="cccsssscccccccccccc" /><path
         d="m 5.015625,10.609375 v 1.607422 H 8.7910156 V 10.636719 H 5.2324219 c -0.031847,0 -0.062725,-7.48e-4 -0.09375,-0.0039 -0.031025,-0.0032 -0.06175,-0.0095 -0.091797,-0.01563 -0.010477,-0.0021 -0.020905,-0.0053 -0.03125,-0.0078 z"
         style="fill:#8eef97;stroke-width:0.65635"
         id="path20" /><path
         d="M 5.015625,3.7832031 V 5.390625 C 5.02597,5.388125 5.036398,5.384965 5.046875,5.382815 5.076922,5.376655 5.107647,5.370349 5.138672,5.36719 5.169697,5.36403 5.200575,5.36328 5.232422,5.36328 H 8.7910156 V 3.7832031 Z"
         style="fill:#8eef97;stroke-width:0.65635"
         id="path17" /></g></g></svg>
