<?xml version="1.0" encoding="UTF-8" standalone="no"?>
<svg
   height="16"
   viewBox="0 0 16 16"
   width="16"
   version="1.1"
   id="svg1"
   sodipodi:docname="SlideTransition.svg"
   inkscape:version="1.3 (0e150ed6c4, 2023-07-21)"
   xml:space="preserve"
   xmlns:inkscape="http://www.inkscape.org/namespaces/inkscape"
   xmlns:sodipodi="http://sodipodi.sourceforge.net/DTD/sodipodi-0.dtd"
   xmlns="http://www.w3.org/2000/svg"
   xmlns:svg="http://www.w3.org/2000/svg"><defs
     id="defs1" /><sodipodi:namedview
     id="namedview1"
     pagecolor="#505050"
     bordercolor="#eeeeee"
     borderopacity="1"
     inkscape:showpageshadow="0"
     inkscape:pageopacity="0"
     inkscape:pagecheckerboard="0"
     inkscape:deskcolor="#505050"
     inkscape:zoom="25.65625"
     inkscape:cx="6.5676004"
     inkscape:cy="10.777101"
     inkscape:window-width="1920"
     inkscape:window-height="1017"
     inkscape:window-x="1912"
     inkscape:window-y="-8"
     inkscape:window-maximized="1"
     inkscape:current-layer="svg1" /><g
     id="ðŸ”-Product-Icons"
     stroke="none"
     stroke-width="1"
     fill="none"
     fill-rule="evenodd"
     transform="matrix(0.61063293,0,0,0.61063293,-0.5457096,-0.37485485)"
     style="fill:#e0e0e0;fill-opacity:1"><g
       id="ic_fluent_star_28_filled"
       fill="#212121"
       fill-rule="nonzero"
       style="fill:#e0e0e0;fill-opacity:1"><path
         d="m 14.43734,3.103487 c 0.197212,0.09733 0.35684,0.2569577 0.45417,0.4541703 l 2.923868,5.9244038 6.537968,0.9500219 c 0.546545,0.07942 0.925226,0.586861 0.845809,1.133406 -0.03163,0.217637 -0.134112,0.418779 -0.291596,0.572288 l -4.730918,4.611505 1.116819,6.51155 c 0.09336,0.544336 -0.272227,1.061292 -0.816564,1.154653 -0.216757,0.03718 -0.439725,0.0019 -0.634386,-0.100477 L 13.994774,21.240672 8.147038,24.315008 C 7.6581934,24.572009 7.0535662,24.384063 6.7965654,23.895218 6.6942263,23.700558 6.6589117,23.477589 6.6960885,23.260832 L 7.8129067,16.749282 3.0819888,12.137777 C 2.6865052,11.752276 2.6784129,11.119162 3.0639142,10.723679 3.2174228,10.566195 3.4185652,10.463708 3.6362022,10.432083 L 10.17417,9.4820611 13.098038,3.5576573 C 13.34246,3.0624037 13.942086,2.8590647 14.43734,3.103487 Z"
         id="ðŸŽ¨-Color"
         style="fill:#e0e0e0;fill-opacity:1" /></g></g></svg>
