<?xml version="1.0" encoding="UTF-8" standalone="no"?>
<svg
   height="16"
   viewBox="0 0 16 16"
   width="16"
   version="1.1"
   id="svg1"
   sodipodi:docname="SplashScreen.svg"
   inkscape:version="1.3 (0e150ed6c4, 2023-07-21)"
   xml:space="preserve"
   xmlns:inkscape="http://www.inkscape.org/namespaces/inkscape"
   xmlns:sodipodi="http://sodipodi.sourceforge.net/DTD/sodipodi-0.dtd"
   xmlns="http://www.w3.org/2000/svg"
   xmlns:svg="http://www.w3.org/2000/svg"><defs
     id="defs1" /><sodipodi:namedview
     id="namedview1"
     pagecolor="#505050"
     bordercolor="#eeeeee"
     borderopacity="1"
     inkscape:showpageshadow="0"
     inkscape:pageopacity="0"
     inkscape:pagecheckerboard="0"
     inkscape:deskcolor="#505050"
     inkscape:zoom="25.65625"
     inkscape:cx="3.6053593"
     inkscape:cy="10.348356"
     inkscape:window-width="1920"
     inkscape:window-height="1017"
     inkscape:window-x="1912"
     inkscape:window-y="-8"
     inkscape:window-maximized="1"
     inkscape:current-layer="svg1" /><g
     id="g1"
     transform="translate(2.5e-7,-0.1964274)"><path
       d="m 4.0751925,6.9476249 v 2.319204 c 0,0.09855 0.079873,0.178401 0.1784005,0.178401 h 1.605603 v -2.497605 z"
       fill="#212121"
       id="path2"
       style="fill:#8eef97;fill-opacity:1;stroke-width:0.713601" /><path
       d="M 11.746407,9.4452299 H 6.9295979 v -2.497605 h 4.9952091 v 2.319204 c 0,0.09855 -0.07985,0.178401 -0.1784,0.178401 z"
       fill="#212121"
       id="path3"
       style="fill:#8eef97;fill-opacity:1;stroke-width:0.713601" /></g><path
     d="m 0.86398676,4.2535931 c 0,-1.0838034 0.87860014,-1.9624037 1.96240354,-1.9624037 H 13.17361 c 1.083817,0 1.962403,0.8786003 1.962403,1.9624037 v 7.4928139 c 0,1.083818 -0.878586,1.962404 -1.962403,1.962404 H 2.8263903 c -1.0838034,0 -1.96240354,-0.878586 -1.96240354,-1.962404 z M 4.253593,4.4319934 c -0.6896957,0 -1.2488022,0.5591067 -1.2488022,1.2488023 v 4.6384083 c 0,0.689696 0.5591065,1.248803 1.2488022,1.248803 h 7.492814 c 0.689696,0 1.248802,-0.559107 1.248802,-1.248803 V 5.6807957 c 0,-0.6896956 -0.559106,-1.2488023 -1.248802,-1.2488023 z"
     fill="#212121"
     id="path4"
     style="fill:#8eef97;fill-opacity:1;stroke-width:0.713601" /></svg>
