<?xml version="1.0" encoding="UTF-8" standalone="no"?>
<svg
   height="16"
   viewBox="0 0 16 16"
   width="16"
   version="1.1"
   id="svg1"
   sodipodi:docname="IconAddSlide.svg"
   inkscape:version="1.3 (0e150ed6c4, 2023-07-21)"
   xml:space="preserve"
   xmlns:inkscape="http://www.inkscape.org/namespaces/inkscape"
   xmlns:sodipodi="http://sodipodi.sourceforge.net/DTD/sodipodi-0.dtd"
   xmlns="http://www.w3.org/2000/svg"
   xmlns:svg="http://www.w3.org/2000/svg"><defs
     id="defs1" /><sodipodi:namedview
     id="namedview1"
     pagecolor="#505050"
     bordercolor="#eeeeee"
     borderopacity="1"
     inkscape:showpageshadow="0"
     inkscape:pageopacity="0"
     inkscape:pagecheckerboard="0"
     inkscape:deskcolor="#505050"
     inkscape:zoom="25.65625"
     inkscape:cx="8.048721"
     inkscape:cy="10.465286"
     inkscape:window-width="1920"
     inkscape:window-height="1017"
     inkscape:window-x="1912"
     inkscape:window-y="-8"
     inkscape:window-maximized="1"
     inkscape:current-layer="svg1" /><g
     id="g1"
     transform="matrix(0.02152546,0,0,0.02152546,7.76322,7.8349715)"
     style="fill:#8eef97;fill-opacity:1"><path
       d="m -247.33334,-309 c -50.626,0 -91.66666,41.04067 -91.66666,91.66667 v 349.99999 c 0,50.62667 41.04066,91.66667 91.66666,91.66667 h 224.94 C -33.09334,198.68 -39.000007,170.53 -39.000007,141 c 0,-119.663335 97.003332,-216.666667 216.666667,-216.666667 58.21666,0 111.07,22.96 150,60.319999 V -217.33333 c 0,-50.626 -41.04,-91.66667 -91.66667,-91.66667 z"
       fill="#212121"
       id="path1-0"
       style="fill:#8eef97;fill-opacity:1;stroke-width:33.3333" /><path
       d="m 360.99999,141 c 0,-101.253335 -82.08,-183.333334 -183.33333,-183.333334 -101.253335,0 -183.333334,82.079999 -183.333334,183.333334 0,101.25333 82.079999,183.33333 183.333334,183.33333 101.25333,0 183.33333,-82.08 183.33333,-183.33333 z m -166.64667,16.66666 0.0167,83.45 c 0,9.20667 -7.46,16.66667 -16.66667,16.66667 -9.20333,0 -16.66666,-7.46 -16.66666,-16.66667 l -0.0167,-83.45 H 77.536659 c -9.203334,0 -16.666667,-7.46 -16.666667,-16.66666 0,-9.20334 7.463333,-16.66667 16.666667,-16.66667 h 83.480001 l -0.0167,-83.356665 c 0,-9.206666 7.46333,-16.666666 16.66667,-16.666666 9.20333,0 16.66666,7.46 16.66666,16.666666 l 0.0167,83.356665 h 83.41667 c 9.20666,0 16.66666,7.46333 16.66666,16.66667 0,9.20666 -7.46,16.66666 -16.66666,16.66666 z"
       fill="#212121"
       id="path2"
       style="fill:#8eef97;fill-opacity:1;stroke-width:33.3333" /></g></svg>
