<?xml version="1.0" encoding="UTF-8" standalone="no"?>
<svg
   height="16"
   viewBox="0 0 16 16"
   width="16"
   version="1.1"
   id="svg1"
   sodipodi:docname="ProjectIcon.svg"
   inkscape:version="1.3 (0e150ed6c4, 2023-07-21)"
   xml:space="preserve"
   inkscape:export-filename="ProjectIcon.png"
   inkscape:export-xdpi="1371.4286"
   inkscape:export-ydpi="1371.4286"
   xmlns:inkscape="http://www.inkscape.org/namespaces/inkscape"
   xmlns:sodipodi="http://sodipodi.sourceforge.net/DTD/sodipodi-0.dtd"
   xmlns="http://www.w3.org/2000/svg"
   xmlns:svg="http://www.w3.org/2000/svg"><defs
     id="defs1" /><sodipodi:namedview
     id="namedview1"
     pagecolor="#505050"
     bordercolor="#eeeeee"
     borderopacity="1"
     inkscape:showpageshadow="0"
     inkscape:pageopacity="0"
     inkscape:pagecheckerboard="0"
     inkscape:deskcolor="#505050"
     inkscape:zoom="36.283417"
     inkscape:cx="5.4708188"
     inkscape:cy="7.3449532"
     inkscape:window-width="1920"
     inkscape:window-height="1017"
     inkscape:window-x="1912"
     inkscape:window-y="-8"
     inkscape:window-maximized="1"
     inkscape:current-layer="svg1"
     showguides="false" /><path
     d="m 9.1692949,0.98423562 c -0.6457837,-0.6457834 -1.6928054,-0.6457834 -2.3385887,0 L 0.98423546,6.8307062 c -0.6457829,0.6457831 -0.6457833,1.692805 0,2.3385887 L 6.8307062,15.015764 c 0.6457831,0.645784 1.6928052,0.645784 2.3385887,0 L 15.015764,9.1692949 c 0.645784,-0.6457837 0.645784,-1.6928056 0,-2.3385887 z M 8.0000003,2.1535297 13.846471,8.0000003 8.0000003,13.846471 2.1535297,8.0000003 Z"
     fill="#8eef97"
     id="path1"
     sodipodi:nodetypes="sssssssssccccc"
     style="stroke:none;stroke-width:0.826816;stroke-opacity:1" /><g
     style="fill:#ffffff;fill-opacity:1"
     id="g2"
     transform="matrix(0.02376005,0,0,0.02376005,4.6094603,4.1408911)"><g
       id="g1"
       style="fill:#ffffff;fill-opacity:1">&#10;	<path
   d="m 165.797,288.71 c -16.89,0 -23.974,-15.545 -26.301,-20.652 -1.919,-4.214 -4.4,-6.728 -6.637,-6.728 -1.343,0 -2.797,0.826 -3.621,2.059 -10.602,15.854 -29.265,25.322 -49.922,25.322 -34.197,0 -62.021,-27.887 -62.021,-62.166 0,-21.166 8.271,-38.889 22.124,-47.404 3.865,-2.381 5.826,-4.702 5.826,-6.9 0,-2.814 -3.012,-4.884 -5.989,-5.476 C 15.409,162.026 0,144.645 0,122.485 0,97.772 20.065,77.665 44.729,77.665 c 11.259,0 22.653,4.772 30.479,12.766 3.585,3.661 7.638,5.365 12.756,5.365 8.769,0 16.306,-6.502 16.459,-14.196 0.047,-2.183 -0.073,-9.916 -0.124,-12.712 -0.001,-0.063 -0.002,-0.124 -0.002,-0.185 0,-33.875 27.013,-60.413 61.499,-60.413 34.199,0 62.024,27.887 62.024,62.166 0,14.94 -7.221,31.259 -12.493,43.174 l -0.237,0.537 c -3.781,8.552 -3.697,16.272 0.246,22.327 4.468,6.86 13.725,11.124 24.159,11.124 1.115,0 2.254,-0.048 3.384,-0.143 2.557,-0.215 7.247,-0.388 9.649,-0.428 0.243,-0.004 0.471,-0.006 0.7,-0.006 24.135,0 43.77,20.104 43.77,44.818 0,24.714 -20.065,44.82 -44.729,44.82 -12.84,0 -22.554,-6.859 -30.36,-12.371 -0.97,-0.685 -1.936,-1.366 -2.905,-2.034 -4.171,-2.877 -7.974,-4.159 -12.333,-4.159 -4.903,0 -9.571,2.035 -13.147,5.728 -3.759,3.884 -5.732,9.02 -5.557,14.46 0.102,3.117 0.82,5.201 1.91,8.355 1.066,3.087 2.392,6.927 3.264,12.284 1.13,6.959 -0.928,13.939 -5.793,19.656 -5.384,6.332 -13.442,10.112 -21.551,10.112 z"
   id="path1-9"
   sodipodi:nodetypes="scscsscscsscsccssscccssssssscscccccs"
   style="fill:#ffffff;fill-opacity:1" />&#10;</g></g></svg>
