<?xml version="1.0" encoding="UTF-8" standalone="no"?>
<svg
   height="16"
   viewBox="0 0 16 16"
   width="16"
   version="1.1"
   id="svg1"
   sodipodi:docname="SplashScreenSlide.svg"
   inkscape:version="1.3 (0e150ed6c4, 2023-07-21)"
   xml:space="preserve"
   xmlns:inkscape="http://www.inkscape.org/namespaces/inkscape"
   xmlns:sodipodi="http://sodipodi.sourceforge.net/DTD/sodipodi-0.dtd"
   xmlns="http://www.w3.org/2000/svg"
   xmlns:svg="http://www.w3.org/2000/svg"><defs
     id="defs1" /><sodipodi:namedview
     id="namedview1"
     pagecolor="#505050"
     bordercolor="#eeeeee"
     borderopacity="1"
     inkscape:showpageshadow="0"
     inkscape:pageopacity="0"
     inkscape:pagecheckerboard="0"
     inkscape:deskcolor="#505050"
     inkscape:zoom="18.141709"
     inkscape:cx="10.721151"
     inkscape:cy="9.508476"
     inkscape:window-width="1920"
     inkscape:window-height="1017"
     inkscape:window-x="1912"
     inkscape:window-y="-8"
     inkscape:window-maximized="1"
     inkscape:current-layer="svg1" /><path
     d="M 3,1 C 1.8954305,1 1,1.8954305 1,3 v 10 c 0,1.104569 0.8954305,2 2,2 h 10 c 1.104569,0 2,-0.895431 2,-2 V 3 C 15,1.8954305 14.104569,1 13,1 Z M 3,3 H 13 V 13 H 3 Z"
     fill="#8eef97"
     id="path1"
     sodipodi:nodetypes="sssssssssccccc"
     style="display:none;stroke:none;stroke-opacity:1" /><path
     d="M 8.7163301,3.7020184 C 8.3207118,3.3064003 7.6792879,3.3064003 7.2836696,3.7020186 L 3.702019,7.2836692 c -0.3956185,0.3956185 -0.3956188,1.0370427 -5e-7,1.4326609 l 3.5816506,3.5816519 c 0.3956185,0.395618 1.037043,0.395618 1.4326615,0 L 12.297982,8.7163302 c 0.395618,-0.3956183 0.395618,-1.0370425 0,-1.4326611 z"
     fill="#8eef97"
     id="path1-5"
     sodipodi:nodetypes="sssssssss"
     style="display:none;fill:#e0e0e0;fill-opacity:1;stroke:none;stroke-width:0.506521;stroke-opacity:1" /><path
     d="m 1.3032768,4.4842237 c 0,-1.0170879 0.8245128,-1.8416007 1.8416007,-1.8416007 h 9.7102455 c 1.017098,0 1.8416,0.8245128 1.8416,1.8416007 v 7.0315573 c 0,1.017099 -0.824502,1.841596 -1.8416,1.841596 H 3.1448775 c -1.0170879,0 -1.8416007,-0.824497 -1.8416007,-1.841596 z m 3.1809443,0.8370865 c -0.2773862,0 -0.5022571,0.2248709 -0.5022571,0.5022571 0,0.2773862 0.2248709,0.5022519 0.5022571,0.5022519 H 7.4977429 C 7.7751238,6.3258192 8,6.1009535 8,5.8235673 8,5.5461811 7.7751238,5.3213102 7.4977429,5.3213102 Z m 0,2.009018 c -0.2773862,0 -0.5022571,0.2248762 -0.5022571,0.5022519 0,0.2773809 0.2248709,0.5022571 0.5022571,0.5022571 h 5.6922139 c 0.277376,0 0.502252,-0.2248762 0.502252,-0.5022571 0,-0.2773757 -0.224876,-0.5022519 -0.502252,-0.5022519 z M 3.981964,9.8415981 c 0,0.2773809 0.2248709,0.5022569 0.5022571,0.5022569 h 4.3528654 c 0.2773809,0 0.5022571,-0.224876 0.5022571,-0.5022569 0,-0.2773757 -0.2248762,-0.5022519 -0.5022571,-0.5022519 H 4.4842211 c -0.2773862,0 -0.5022571,0.2248762 -0.5022571,0.5022519 z"
     fill="#212121"
     id="path1-9"
     style="stroke-width:0.669674;fill:#8eef97;fill-opacity:1" /></svg>
