<?xml version="1.0" encoding="UTF-8" standalone="no"?>
<svg
   height="16"
   viewBox="0 0 16 16"
   width="16"
   version="1.1"
   id="svg1"
   sodipodi:docname="SplashScreen.svg"
   inkscape:version="1.3 (0e150ed6c4, 2023-07-21)"
   xml:space="preserve"
   xmlns:inkscape="http://www.inkscape.org/namespaces/inkscape"
   xmlns:sodipodi="http://sodipodi.sourceforge.net/DTD/sodipodi-0.dtd"
   xmlns="http://www.w3.org/2000/svg"
   xmlns:svg="http://www.w3.org/2000/svg"><defs
     id="defs1" /><sodipodi:namedview
     id="namedview1"
     pagecolor="#505050"
     bordercolor="#eeeeee"
     borderopacity="1"
     inkscape:showpageshadow="0"
     inkscape:pageopacity="0"
     inkscape:pagecheckerboard="0"
     inkscape:deskcolor="#505050"
     inkscape:zoom="36.283417"
     inkscape:cx="7.4000749"
     inkscape:cy="8.7505541"
     inkscape:window-width="1920"
     inkscape:window-height="1017"
     inkscape:window-x="1912"
     inkscape:window-y="-8"
     inkscape:window-maximized="1"
     inkscape:current-layer="svg1" /><path
     d="M 3,1 C 1.8954305,1 1,1.8954305 1,3 v 10 c 0,1.104569 0.8954305,2 2,2 h 10 c 1.104569,0 2,-0.895431 2,-2 V 3 C 15,1.8954305 14.104569,1 13,1 Z M 3,3 H 13 V 13 H 3 Z"
     fill="#8eef97"
     id="path1"
     sodipodi:nodetypes="sssssssssccccc"
     style="stroke:none;stroke-opacity:1" /><path
     d="m 5.0572169,3.8801037 c -0.6501016,0 -1.1771131,0.5270116 -1.1771131,1.1771133 v 5.885565 c 0,0.650102 0.5270115,1.177114 1.1771131,1.177114 h 5.8855651 c 0.650102,0 1.177114,-0.527012 1.177114,-1.177114 V 5.057217 c 0,-0.6501017 -0.527012,-1.1771133 -1.177114,-1.1771133 z"
     fill="#8eef97"
     id="path1-5"
     sodipodi:nodetypes="sssssssss"
     style="stroke:none;stroke-width:0.588556;stroke-opacity:1;fill:#e0e0e0;fill-opacity:1" /></svg>
